<svg id="Layer_1" data-name="Layer 1" xmlns="http://www.w3.org/2000/svg" xmlns:xlink="http://www.w3.org/1999/xlink" viewBox="0 0 39.5 39.5"><defs><style>.cls-1{fill:url(#New_Gradient_Swatch_1);}.cls-2{fill:#fff;fill-rule:evenodd;}</style><linearGradient id="New_Gradient_Swatch_1" x1="2.69" y1="8.07" x2="36.28" y2="31.07" gradientUnits="userSpaceOnUse"><stop offset="0" stop-color="#fbcd38"/><stop offset="1" stop-color="#ee0768"/></linearGradient></defs><title>favicon</title><circle class="cls-1" cx="19.75" cy="19.75" r="19.75"/><path class="cls-2" d="M14.6,13.55c-.47.92-.89,1.81-1.27,2.68s-.7,1.64-1,2.35-.46,1.22-.56,1.53a11.63,11.63,0,0,0,2.37-1.72,20.78,20.78,0,0,0,2.19-2.31,21.8,21.8,0,0,0,1.75-2.5,14.48,14.48,0,0,0,1.17-2.33,4.82,4.82,0,0,0,.39-1.76c0-1.29-1.51-.74-2.09-.21a9.29,9.29,0,0,0-1.53,1.78,22.11,22.11,0,0,0-1.45,2.49m3.76,2.18a23.69,23.69,0,0,1-1.87,2.21,25.77,25.77,0,0,1-2,1.86,18.93,18.93,0,0,1-1.83,1.41,9.36,9.36,0,0,1-1.47.85c-.38,1-.75,2.06-1.09,3.21s-.66,2.32-1,3.5A15.32,15.32,0,0,1,10,27.26c.37-.62.8-1.29,1.28-2s1-1.44,1.59-2.17a25,25,0,0,1,1.73-2,12.69,12.69,0,0,1,1.71-1.51,3.5,3.5,0,0,1,1.57-.7,1.76,1.76,0,0,1,1.46.3,1.7,1.7,0,0,1,.49,1.11,4.49,4.49,0,0,1-.13,1.47,6.65,6.65,0,0,1-.45,1.33c-.31.68-.66,1.38-1,2.08a20.33,20.33,0,0,0-1,2.08c-.06.16-.14.4-.24.73a5.94,5.94,0,0,0-.24,1,2.19,2.19,0,0,0,0,.89.52.52,0,0,0,.57.39,1.6,1.6,0,0,0,1-.44,7.85,7.85,0,0,0,1.11-1.12,16.21,16.21,0,0,0,1.12-1.52c.37-.57.71-1.12,1-1.65s.6-1,.84-1.45.41-.74.53-1a2.27,2.27,0,0,1,.17-1.47,5.18,5.18,0,0,1,1.43-1.73,9.11,9.11,0,0,1,2.3-1.32,11.81,11.81,0,0,1,2.67-.74,7.38,7.38,0,0,1,2.53,0,3.22,3.22,0,0,1,1.85.94,1.51,1.51,0,0,1,.35,1.13c.19-2.41-2-3.1-3.95-3.24a12.49,12.49,0,0,0-6.86-7c-.91-4.4-5.38-3.14-5.52-3.1a3.3,3.3,0,0,1,1.76,0A2.25,2.25,0,0,1,21.15,8a4.13,4.13,0,0,1-.07,2.79A13.2,13.2,0,0,1,20,13.29,21.32,21.32,0,0,1,18.36,15.73Zm5.3,8.66c-.28.51-.56,1-.88,1.59a25.89,25.89,0,0,1-1.9,2.93,13.61,13.61,0,0,1-2.11,2.26,3.38,3.38,0,0,1-2.14.92,2.23,2.23,0,0,1-1.41-.41,2.28,2.28,0,0,1-.78-1.07,3.84,3.84,0,0,1-.21-1.56,7.1,7.1,0,0,1,.34-1.82,19.41,19.41,0,0,1,.7-1.9l.81-2c.25-.61.44-1.12.57-1.54s.12-.63,0-.63-.51.19-.9.56a16.93,16.93,0,0,0-1.31,1.44c-.48.59-1,1.25-1.51,2s-1,1.47-1.48,2.21-.88,1.44-1.24,2.11L9.91,30a12.44,12.44,0,0,0,13.73,2.56,4.28,4.28,0,0,1-1.1-.29,2.34,2.34,0,0,1-1.14-.92,1.51,1.51,0,0,1-.13-1.14,1.88,1.88,0,0,1,.68-1,2.67,2.67,0,0,1,.89-.45,1.46,1.46,0,0,1,.79,0,.4.4,0,0,1,.33.34c0,.18-.13.42-.44.73s-.38.6-.17.8a1.59,1.59,0,0,0,1,.35A4.74,4.74,0,0,0,26,30.74a3.61,3.61,0,0,0,1.54-.92,1,1,0,0,0,.36-1,2.58,2.58,0,0,0-.54-1.07,7.64,7.64,0,0,0-1.1-1.11L25,25.58c-.43-.37-.82-.72-1.18-1A1.85,1.85,0,0,1,23.66,24.39Zm2.22-1.11a6.05,6.05,0,0,0,.83.89c.34.3.71.61,1.12.93a10.09,10.09,0,0,1,1.13,1,5.26,5.26,0,0,1,.85,1.18,2.74,2.74,0,0,1,.29,1.38,3.58,3.58,0,0,1-.5,1.6,4.66,4.66,0,0,1-1.13,1.26l-.16.12c3.52-1.86,2.81-4.71,2.06-6.25a12.43,12.43,0,0,0,.74-4.24c0-.37,0-.74,0-1.1a3.14,3.14,0,0,0-.59,0,7.93,7.93,0,0,0-1.62.3,10,10,0,0,0-1.52.59,5.74,5.74,0,0,0-1.17.71,1.28,1.28,0,0,0-.52.7A1.08,1.08,0,0,0,25.88,23.28ZM13.77,9.72A12.47,12.47,0,0,0,6.7,24.64c-.31,1.51-.64,3.14-.87,4.12C5.32,31,7.66,31.93,7.66,31.93a1.92,1.92,0,0,1-.8-.8,1.76,1.76,0,0,1-.18-1.25c.14-.87.33-1.88.57-3s.54-2.37.89-3.66.74-2.61,1.18-4,.91-2.64,1.44-3.9a36.55,36.55,0,0,1,1.67-3.49A18.74,18.74,0,0,1,13.77,9.72Z" transform="translate(-0.25 -0.25)"/></svg>